<svg width="1400" height="1000" viewBox="0 0 1400 1000" fill="none" xmlns="http://www.w3.org/2000/svg">
  <rect width="1400" height="1000" rx="36" fill="#F8EEDC"/>
  <rect y="0" width="1400" height="520" fill="url(#sky)"/>
  <rect y="500" width="1400" height="500" fill="#D9C5A1"/>
  <path d="M0 610C120 560 240 560 360 610C500 670 630 710 780 690C960 664 1120 575 1400 525V1000H0V610Z" fill="#B98342"/>
  <path d="M0 690C150 650 290 660 430 705C560 745 735 780 905 750C1084 718 1255 645 1400 605V1000H0V690Z" fill="#8F4A18"/>
  <g opacity="0.95">
    <rect x="160" y="560" width="220" height="260" rx="10" fill="#F7E6C3"/>
    <rect x="190" y="575" width="160" height="220" rx="6" fill="#FFF8EC"/>
    <rect x="188" y="610" width="164" height="18" rx="5" fill="#C87E3B"/>
    <rect x="205" y="635" width="130" height="10" rx="5" fill="#E5C892"/>
    <rect x="202" y="655" width="136" height="10" rx="5" fill="#E5C892"/>
    <rect x="198" y="675" width="144" height="10" rx="5" fill="#E5C892"/>
    <rect x="188" y="700" width="164" height="8" rx="4" fill="#C87E3B"/>
  </g>
  <g opacity="0.9">
    <rect x="860" y="530" width="250" height="280" rx="16" fill="#F8E6BE"/>
    <rect x="890" y="554" width="190" height="230" rx="10" fill="#FFF8ED"/>
    <rect x="915" y="590" width="140" height="16" rx="8" fill="#B77F31"/>
    <rect x="925" y="620" width="120" height="10" rx="5" fill="#E8C887"/>
    <rect x="925" y="640" width="120" height="10" rx="5" fill="#E8C887"/>
    <rect x="925" y="660" width="120" height="10" rx="5" fill="#E8C887"/>
    <rect x="902" y="690" width="166" height="10" rx="5" fill="#B77F31"/>
  </g>
  <g opacity="0.8">
    <path d="M230 520C242 470 285 440 330 448C372 455 404 492 404 536V548H230V520Z" fill="#E1BD7C"/>
    <path d="M232 520C242 480 281 456 316 460C349 463 378 487 382 520H232Z" fill="#C2823A"/>
  </g>
  <g opacity="0.9">
    <path d="M1040 525C1058 500 1098 483 1140 486C1184 489 1214 515 1220 548H1040V525Z" fill="#E7C57B"/>
    <path d="M1042 525C1053 503 1087 489 1120 492C1152 495 1178 515 1184 540H1042V525Z" fill="#A95A1D"/>
  </g>
  <g opacity="0.85">
    <rect x="500" y="670" width="30" height="180" rx="8" fill="#8C4A14"/>
    <rect x="470" y="648" width="90" height="24" rx="8" fill="#B36D26"/>
    <rect x="480" y="620" width="70" height="40" rx="8" fill="#D69E51"/>
    <rect x="490" y="590" width="50" height="32" rx="8" fill="#F7E3A9"/>
  </g>
  <path d="M556 690C614 662 678 650 742 668C812 688 860 732 898 780L840 804C806 758 758 726 706 712C654 698 620 698 570 714L556 690Z" fill="#8B5120" opacity="0.5"/>
  <path d="M120 760C170 720 245 710 320 730C396 750 456 790 500 830H120V760Z" fill="#5B2C12" opacity="0.35"/>
  <path d="M860 785C930 744 1008 736 1080 758C1150 780 1204 822 1256 868L1180 900C1130 864 1070 836 1010 826C952 816 910 824 860 840L860 785Z" fill="#5B2C12" opacity="0.28"/>
  <circle cx="1160" cy="220" r="82" fill="#FAF4E6" opacity="0.9"/>
  <path d="M935 200C970 170 1028 160 1072 180C1114 198 1140 230 1144 262C1110 252 1070 248 1032 252C988 256 949 274 920 307C900 285 885 251 887 221C891 211 905 202 935 200Z" fill="#3E6B4A" opacity="0.3"/>
  <path d="M0 450C120 410 220 388 330 390C454 392 558 430 650 472C780 524 905 542 1040 518C1150 500 1280 454 1400 410V520H0V450Z" fill="#25553E" opacity="0.28"/>
  <defs>
    <linearGradient id="sky" x1="700" y1="0" x2="700" y2="520" gradientUnits="userSpaceOnUse">
      <stop stop-color="#FFDFAD"/>
      <stop offset="0.5" stop-color="#F3C787"/>
      <stop offset="1" stop-color="#C37E41"/>
    </linearGradient>
  </defs>
</svg>
